<svg width="150" height="150" viewBox="0 0 150 150" fill="none" xmlns="http://www.w3.org/2000/svg">
<mask id="path-1-inside-1_1753_8377" fill="white">
<path fill-rule="evenodd" clip-rule="evenodd" d="M107 95H91H77H76.5H45C44.8437 95 44.6916 94.9821 44.5457 94.9482C44.035 94.9825 43.5196 95 43 95C30.8497 95 21 85.4487 21 73.6667C21 61.8846 30.8497 52.3333 43 52.3333C44.8966 52.3333 46.7371 52.566 48.4928 53.0036C52.4285 40.226 63.7042 31 77 31C91.866 31 104.207 42.5338 106.586 57.6699C106.724 57.6678 106.862 57.6667 107 57.6667C119.15 57.6667 129 66.024 129 76.3333C129 86.2492 119.888 94.3593 108.381 94.9638C108.257 94.9876 108.13 95 108 95H107Z"/>
</mask>
<path fill-rule="evenodd" clip-rule="evenodd" d="M107 95H91H77H76.5H45C44.8437 95 44.6916 94.9821 44.5457 94.9482C44.035 94.9825 43.5196 95 43 95C30.8497 95 21 85.4487 21 73.6667C21 61.8846 30.8497 52.3333 43 52.3333C44.8966 52.3333 46.7371 52.566 48.4928 53.0036C52.4285 40.226 63.7042 31 77 31C91.866 31 104.207 42.5338 106.586 57.6699C106.724 57.6678 106.862 57.6667 107 57.6667C119.15 57.6667 129 66.024 129 76.3333C129 86.2492 119.888 94.3593 108.381 94.9638C108.257 94.9876 108.13 95 108 95H107Z" fill="white"/>
<path d="M44.5457 94.9482L45.4508 91.0519L44.871 90.9172L44.277 90.9572L44.5457 94.9482ZM48.4928 53.0036L47.5255 56.8849L51.2006 57.8009L52.3156 54.1811L48.4928 53.0036ZM106.586 57.6699L102.634 58.291L103.174 61.7239L106.648 61.6694L106.586 57.6699ZM108.381 94.9638L108.171 90.9694L107.895 90.9838L107.624 91.0361L108.381 94.9638ZM107 91H91V99H107V91ZM91 91H77V99H91V91ZM77 91H76.5V99H77V91ZM76.5 91H45V99H76.5V91ZM45 91C45.1505 91 45.3021 91.0174 45.4508 91.0519L43.6405 98.8444C44.0812 98.9468 44.5369 99 45 99V91ZM44.277 90.9572C43.8558 90.9855 43.43 91 43 91V99C43.6093 99 44.2143 98.9795 44.8143 98.9391L44.277 90.9572ZM43 91C32.942 91 25 83.1245 25 73.6667H17C17 87.773 28.7575 99 43 99V91ZM25 73.6667C25 64.2089 32.942 56.3333 43 56.3333V48.3333C28.7575 48.3333 17 59.5603 17 73.6667H25ZM43 56.3333C44.5684 56.3333 46.0841 56.5257 47.5255 56.8849L49.4601 49.1224C47.3901 48.6064 45.2248 48.3333 43 48.3333V56.3333ZM52.3156 54.1811C55.7933 42.8905 65.6516 35 77 35V27C61.7568 27 49.0638 37.5616 44.67 51.8262L52.3156 54.1811ZM77 35C89.6796 35 100.526 44.8778 102.634 58.291L110.537 57.0488C107.887 40.1899 94.0525 27 77 27V35ZM106.648 61.6694C106.765 61.6676 106.883 61.6667 107 61.6667V53.6667C106.841 53.6667 106.682 53.6679 106.523 53.6704L106.648 61.6694ZM107 61.6667C117.583 61.6667 125 68.8241 125 76.3333H133C133 63.2239 120.718 53.6667 107 53.6667V61.6667ZM125 76.3333C125 83.5645 118.158 90.4447 108.171 90.9694L108.59 98.9583C121.617 98.274 133 88.934 133 76.3333H125ZM107.624 91.0361C107.749 91.012 107.875 91 108 91V99C108.385 99 108.766 98.9632 109.137 98.8916L107.624 91.0361ZM108 91H107V99H108V91Z" fill="#0094E7" mask="url(#path-1-inside-1_1753_8377)"/>
<rect x="63" y="79" width="24" height="16" fill="white"/>
<path d="M79 80C79 78.8954 78.1046 78 77 78C75.8954 78 75 78.8954 75 80L79 80ZM75.5858 120.414C76.3668 121.195 77.6332 121.195 78.4142 120.414L91.1421 107.686C91.9232 106.905 91.9232 105.639 91.1421 104.858C90.3611 104.077 89.0948 104.077 88.3137 104.858L77 116.172L65.6863 104.858C64.9052 104.077 63.6389 104.077 62.8579 104.858C62.0768 105.639 62.0768 106.905 62.8579 107.686L75.5858 120.414ZM75 80L75 119L79 119L79 80L75 80Z" fill="#0094E7"/>
</svg>
