<svg width="150" height="150" viewBox="0 0 150 150" fill="none" xmlns="http://www.w3.org/2000/svg">
<path d="M49 114V76C49 75.4477 48.5523 75 48 75H37C36.4477 75 36 75.4477 36 76V114" stroke="#0094E7" stroke-width="4" stroke-linecap="round"/>
<path d="M71 114V89C71 88.4477 70.5523 88 70 88H59C58.4477 88 58 88.4477 58 89V114" stroke="#0094E7" stroke-width="4" stroke-linecap="round"/>
<path d="M93 114V70C93 69.4477 92.5523 69 92 69H81C80.4477 69 80 69.4477 80 70V114" stroke="#0094E7" stroke-width="4" stroke-linecap="round"/>
<path d="M115 114V59C115 58.4477 114.552 58 114 58H103C102.448 58 102 58.4477 102 59V114" stroke="#0094E7" stroke-width="4" stroke-linecap="round"/>
<path d="M35.5362 58.2476C34.5683 58.7799 34.2153 59.996 34.7476 60.9638C35.2799 61.9317 36.496 62.2847 37.4638 61.7524L35.5362 58.2476ZM56.5 49L58.1356 47.849L57.1051 46.3846L55.5362 47.2476L56.5 49ZM66 62.5L64.3644 63.651L65.4775 65.2327L67.0956 64.1732L66 62.5ZM108 35L109.906 35.6064L110.735 33H108V35ZM102.594 45.3936C102.259 46.4462 102.841 47.5709 103.894 47.9059C104.946 48.2408 106.071 47.659 106.406 46.6064L102.594 45.3936ZM37.4638 61.7524L57.4638 50.7524L55.5362 47.2476L35.5362 58.2476L37.4638 61.7524ZM54.8644 50.151L64.3644 63.651L67.6356 61.349L58.1356 47.849L54.8644 50.151ZM67.0956 64.1732L109.096 36.6732L106.904 33.3268L64.9044 60.8268L67.0956 64.1732ZM108 33H95V37H108V33ZM106.094 34.3936L102.594 45.3936L106.406 46.6064L109.906 35.6064L106.094 34.3936Z" fill="#0094E7"/>
</svg>
