<svg width="150" height="150" viewBox="0 0 150 150" fill="none" xmlns="http://www.w3.org/2000/svg">
<path d="M37.7392 61.1794L65.1685 94.4708C65.9062 95.3661 66.3096 96.4901 66.3096 97.6502V116.537C66.3096 118.712 67.7164 120.638 69.7889 121.3L77.9897 123.918C81.2154 124.948 84.5105 122.541 84.5105 119.155V97.5776C84.5105 96.4619 84.8837 95.3781 85.5707 94.4989L111.687 61.0787C114.252 57.7961 111.913 53 107.747 53H41.5981C37.372 53 35.0518 57.9178 37.7392 61.1794Z" fill="white" stroke="#0094E7" stroke-width="4"/>
<path d="M41.5 63H57" stroke="#0094E7" stroke-width="3" stroke-linecap="round"/>
<path d="M46 69H57" stroke="#0094E7" stroke-width="3" stroke-linecap="round"/>
<path d="M49.5 75H57" stroke="#0094E7" stroke-width="3" stroke-linecap="round"/>
<path d="M53.5 81H58" stroke="#0094E7" stroke-width="3" stroke-linecap="round"/>
<path d="M75.2539 63.207V66.7109H73.4492V63.207H75.2539ZM75.0312 82.3438V85.4844H73.2383V82.3438H75.0312ZM76.8008 78.5586C76.8008 78.1055 76.707 77.7109 76.5195 77.375C76.3398 77.0312 76.043 76.7227 75.6289 76.4492C75.2148 76.168 74.6602 75.9062 73.9648 75.6641C72.9648 75.3125 72.0898 74.918 71.3398 74.4805C70.5977 74.0352 70.0195 73.4883 69.6055 72.8398C69.1992 72.1836 68.9961 71.3672 68.9961 70.3906C68.9961 69.4297 69.2148 68.5977 69.6523 67.8945C70.0977 67.1914 70.7148 66.6484 71.5039 66.2656C72.293 65.8828 73.2148 65.6914 74.2695 65.6914C75.082 65.6914 75.8125 65.8125 76.4609 66.0547C77.1172 66.2969 77.6758 66.6523 78.1367 67.1211C78.5977 67.5898 78.9492 68.168 79.1914 68.8555C79.4414 69.5352 79.5664 70.3164 79.5664 71.1992H76.7539C76.7539 70.6992 76.6953 70.2539 76.5781 69.8633C76.4688 69.4648 76.3047 69.1289 76.0859 68.8555C75.8672 68.5742 75.6016 68.3594 75.2891 68.2109C74.9844 68.0625 74.6367 67.9883 74.2461 67.9883C73.6914 67.9883 73.2344 68.0938 72.875 68.3047C72.5156 68.5078 72.25 68.7891 72.0781 69.1484C71.9141 69.5078 71.832 69.918 71.832 70.3789C71.832 70.8242 71.918 71.2148 72.0898 71.5508C72.2617 71.8867 72.5547 72.1914 72.9688 72.4648C73.3906 72.7305 73.9688 73 74.7031 73.2734C75.7109 73.6328 76.582 74.0352 77.3164 74.4805C78.0586 74.918 78.6289 75.4609 79.0273 76.1094C79.4336 76.75 79.6367 77.5586 79.6367 78.5352C79.6367 79.543 79.4023 80.3984 78.9336 81.1016C78.4727 81.8047 77.8242 82.3398 76.9883 82.707C76.1602 83.0664 75.1953 83.2461 74.0938 83.2461C73.3984 83.2461 72.707 83.1562 72.0195 82.9766C71.3398 82.7891 70.7227 82.4844 70.168 82.0625C69.6133 81.6406 69.1719 81.082 68.8438 80.3867C68.5156 79.6836 68.3516 78.8242 68.3516 77.8086H71.1875C71.1875 78.418 71.2695 78.9258 71.4336 79.332C71.5977 79.7383 71.8203 80.0586 72.1016 80.293C72.3828 80.5273 72.6953 80.6953 73.0391 80.7969C73.3906 80.8984 73.7422 80.9492 74.0938 80.9492C74.6797 80.9492 75.1719 80.8516 75.5703 80.6562C75.9766 80.4531 76.2812 80.1719 76.4844 79.8125C76.6953 79.4453 76.8008 79.0273 76.8008 78.5586Z" fill="#0094E7"/>
<circle cx="59" cy="40" r="5" fill="#0094E7"/>
<circle cx="91" cy="39" r="5" fill="#0094E7"/>
<circle cx="76" cy="45" r="4" fill="#0094E7"/>
</svg>
