<svg width="32" height="32" viewBox="0 0 32 32" fill="none" xmlns="http://www.w3.org/2000/svg">
<path d="M28.7381 5.33334C28.617 5.32085 28.4948 5.32085 28.3737 5.33334H3.48478C3.32527 5.3358 3.16681 5.35971 3.01367 5.40445L15.8581 18.1956L28.7381 5.33334Z" fill="#0094E7"/>
<path d="M30.0536 6.56885L17.1114 19.4577C16.7783 19.7888 16.3277 19.9747 15.858 19.9747C15.3884 19.9747 14.9378 19.7888 14.6047 19.4577L1.77804 6.66663C1.73861 6.81155 1.7177 6.96089 1.71582 7.11107V24.8888C1.71582 25.3603 1.90312 25.8125 2.23652 26.1459C2.56992 26.4793 3.0221 26.6666 3.4936 26.6666H28.3825C28.854 26.6666 29.3062 26.4793 29.6396 26.1459C29.973 25.8125 30.1603 25.3603 30.1603 24.8888V7.11107C30.1532 6.92587 30.1172 6.74292 30.0536 6.56885ZM4.71138 24.8888H3.47582V23.6177L9.93804 17.2088L11.1914 18.4622L4.71138 24.8888ZM28.3647 24.8888H27.1203L20.6403 18.4622L21.8936 17.2088L28.3558 23.6177L28.3647 24.8888Z" fill="#0094E7"/>
</svg>
