<svg width="30" height="30" viewBox="0 0 30 30" fill="none" xmlns="http://www.w3.org/2000/svg">
<path d="M15.75 10.5C16.7446 10.5 17.6984 10.8951 18.4017 11.5983C19.1049 12.3016 19.5 13.2554 19.5 14.25C19.5 14.5815 19.6317 14.8995 19.8661 15.1339C20.1005 15.3683 20.4185 15.5 20.75 15.5C21.0815 15.5 21.3995 15.3683 21.6339 15.1339C21.8683 14.8995 22 14.5815 22 14.25C22 12.5924 21.3415 11.0027 20.1694 9.83058C18.9973 8.65848 17.4076 8 15.75 8C15.4185 8 15.1005 8.1317 14.8661 8.36612C14.6317 8.60054 14.5 8.91848 14.5 9.25C14.5 9.58152 14.6317 9.89946 14.8661 10.1339C15.1005 10.3683 15.4185 10.5 15.75 10.5V10.5Z" fill="#0094E7"/>
<path d="M15.75 5.5C18.0706 5.5 20.2962 6.42187 21.9372 8.06282C23.5781 9.70376 24.5 11.9294 24.5 14.25C24.5 14.5815 24.6317 14.8995 24.8661 15.1339C25.1005 15.3683 25.4185 15.5 25.75 15.5C26.0815 15.5 26.3995 15.3683 26.6339 15.1339C26.8683 14.8995 27 14.5815 27 14.25C27 11.2663 25.8147 8.40483 23.705 6.29505C21.5952 4.18526 18.7337 3 15.75 3C15.4185 3 15.1005 3.1317 14.8661 3.36612C14.6317 3.60054 14.5 3.91848 14.5 4.25C14.5 4.58152 14.6317 4.89946 14.8661 5.13388C15.1005 5.3683 15.4185 5.5 15.75 5.5ZM26.6875 20.3875C26.6187 20.1868 26.5001 20.007 26.3426 19.8648C26.1852 19.7227 25.9941 19.6229 25.7875 19.575L18.2875 17.8625C18.0839 17.8163 17.872 17.8219 17.6711 17.8787C17.4703 17.9354 17.2868 18.0416 17.1375 18.1875C16.9625 18.35 16.95 18.3625 16.1375 19.9125C13.4415 18.6702 11.2812 16.5011 10.05 13.8C11.6375 13 11.65 13 11.8125 12.8125C11.9584 12.6632 12.0646 12.4797 12.1213 12.2789C12.1781 12.078 12.1837 11.8661 12.1375 11.6625L10.425 4.25C10.3771 4.04337 10.2773 3.85234 10.1352 3.69489C9.99304 3.53744 9.81317 3.41875 9.6125 3.35C9.32058 3.24574 9.01914 3.17038 8.7125 3.125C8.39656 3.05174 8.07417 3.00987 7.75 3C6.22501 3 4.76247 3.6058 3.68414 4.68414C2.6058 5.76247 2 7.22501 2 8.75C2.00661 13.8534 4.03686 18.7459 7.6455 22.3545C11.2541 25.9631 16.1466 27.9934 21.25 28C22.0051 28 22.7528 27.8513 23.4504 27.5623C24.1481 27.2733 24.7819 26.8498 25.3159 26.3159C25.8498 25.7819 26.2733 25.1481 26.5623 24.4504C26.8513 23.7528 27 23.0051 27 22.25C27.0004 21.9318 26.9753 21.6142 26.925 21.3C26.8725 20.9895 26.793 20.6842 26.6875 20.3875ZM21.25 25.5C16.8086 25.4967 12.5501 23.7309 9.40962 20.5904C6.2691 17.4499 4.50331 13.1914 4.5 8.75C4.50329 7.88906 4.84676 7.06432 5.45554 6.45554C6.06432 5.84676 6.88906 5.50329 7.75 5.5H8.1625L9.5 11.3L8.825 11.65C7.75 12.2125 6.9 12.6625 7.35 13.6375C8.08278 15.712 9.26847 17.5972 10.8209 19.1561C12.3734 20.715 14.2536 21.9086 16.325 22.65C17.375 23.075 17.7875 22.2875 18.35 21.2L18.7125 20.5125L24.5 21.8375V22.25C24.4967 23.1109 24.1532 23.9357 23.5445 24.5445C22.9357 25.1532 22.1109 25.4967 21.25 25.5Z" fill="#0094E7"/>
</svg>
