<svg width="150" height="150" viewBox="0 0 150 150" fill="none" xmlns="http://www.w3.org/2000/svg">
<path d="M96.4599 78.7057C96.4599 78.7057 111.424 90.2964 111.977 113.693C111.977 113.693 102.01 103.254 93.6021 101.317L95.7318 91.6899L96.4599 78.7057Z" fill="white" stroke="#0094E7" stroke-width="3.81308" stroke-miterlimit="10"/>
<path d="M53.5739 78.4921C53.5739 78.4921 39.1054 90.6319 39.5308 114.031C39.5308 114.031 49.0534 103.229 57.3741 100.98L54.8438 91.439L53.5739 78.4921Z" fill="white" stroke="#0094E7" stroke-width="3.81308" stroke-miterlimit="10"/>
<path d="M96.0899 73.0033C96.1326 93.092 93.1759 110.118 84.0249 116.561H78.6629C78.2029 116.561 77.8996 116.147 78.091 115.78C79.7163 112.654 80.7854 107.256 80.7723 101.123C80.7518 91.4545 74.7493 83.6169 74.7493 83.6169C74.7493 83.6169 68.7801 91.4545 68.8006 101.123C68.8137 107.256 69.9026 112.654 71.5443 115.78C71.7373 116.147 71.4326 116.561 70.9726 116.561H66.5273C57.05 110.289 52.7103 93.2519 53.2437 73.0033C53.4711 64.3359 56.0181 56.162 59.286 49.135C60.7443 45.9978 62.348 43.0921 63.9523 40.4731C69.3994 31.5853 74.8819 26 74.8819 26C74.8819 26 80.4166 31.5853 85.829 40.4731C87.4382 43.1142 89.0354 46.0446 90.4756 49.2094C93.663 56.2199 96.0716 64.369 96.0899 73.0033Z" fill="#FDFEFF" stroke="#0094E7" stroke-width="3.81308" stroke-miterlimit="10" stroke-linecap="round"/>
<path d="M77.1864 108.935C77.1757 119.463 74.7971 128 74.7971 128C74.7971 128 72.4358 119.463 72.4465 108.935C72.4572 98.4064 73.5255 89.8691 74.8357 89.8691C76.1426 89.8691 77.197 98.4064 77.1864 108.935Z" fill="#0094E7" stroke="#0094E7" stroke-width="1.90654" stroke-miterlimit="10"/>
<path d="M91.8136 54.4373L91.8153 54.8536H57.4976L57.4954 54.3515C59.092 50.7355 60.8492 47.3863 62.6077 44.3677H86.6787C88.456 47.4118 90.2209 50.7895 91.8136 54.4373Z" fill="white" stroke="#0094E7" stroke-width="2.85981" stroke-miterlimit="10"/>
<circle cx="75.0179" cy="68.8973" r="7.14953" fill="white" stroke="#0094E7" stroke-width="2.85981"/>
</svg>
