<svg width="29" height="17" viewBox="0 0 29 17" fill="none" xmlns="http://www.w3.org/2000/svg">
<path fill-rule="evenodd" clip-rule="evenodd" d="M14.2323 16.8931H15.9906C15.9906 16.8931 16.518 16.8033 16.7818 16.5337C17.0455 16.2641 17.0455 15.725 17.0455 15.725C17.0455 15.725 17.0455 13.3887 18.1005 13.0293C19.1555 12.6698 20.5621 15.3656 21.9687 16.354C23.0237 17.1627 23.8149 16.983 23.8149 16.983L27.6831 16.8931C27.6831 16.8931 29.7051 16.8033 28.7381 15.096C28.6502 15.0061 28.2106 13.9278 25.8369 11.6814C23.3753 9.34514 23.727 9.79442 26.6281 5.75085C28.3864 3.32471 29.0897 1.887 28.9139 1.16814C28.7381 0.539142 27.4194 0.718856 27.4194 0.718856H23.0237C23.0237 0.718856 22.672 0.628999 22.4962 0.808713C22.2324 0.988427 22.1445 1.258 22.1445 1.258C22.1445 1.258 21.4412 3.145 20.5621 4.76242C18.628 8.08714 17.8368 8.26685 17.573 8.08714C16.8697 7.63785 17.0455 6.11028 17.0455 5.12185C17.0455 1.887 17.573 0.539141 16.0785 0.179713C15.6389 0.089856 15.2872 0 14.0565 0C12.474 0 11.1553 -3.48133e-07 10.452 0.359428C9.9245 0.628999 9.57285 1.16814 9.83659 1.16814C10.1003 1.16814 10.8036 1.34786 11.1553 1.79714C11.507 2.60585 11.507 3.95371 11.507 3.95371C11.507 3.95371 11.7707 7.81756 10.8916 8.26685C10.2762 8.62628 9.48493 7.90742 7.72666 4.85228C6.84752 3.32471 6.1442 1.52757 6.1442 1.52757C6.1442 1.52757 6.05629 1.16814 5.79255 0.988428C5.52881 0.808714 5.08924 0.718856 5.08924 0.718856H0.957285C0.957285 0.718856 0.341887 0.718857 0.0781457 0.988428C-0.0976821 1.258 0.0781457 1.70728 0.0781457 1.70728C0.0781457 1.70728 3.33096 9.43499 7.02334 13.3887C10.452 17.1627 14.2323 16.8931 14.2323 16.8931Z" fill="#0094E7"/>
</svg>
