<svg width="26" height="18" viewBox="0 0 26 18" fill="none" xmlns="http://www.w3.org/2000/svg">
<path d="M25.74 3.94286C25.74 3.94286 25.48 2.14286 24.7 1.37143C23.7467 0.342857 22.62 0.342857 22.1 0.257143C18.46 1.53269e-07 13 0 13 0C13 0 7.54 1.53269e-07 3.9 0.257143C3.38 0.342857 2.25333 0.342857 1.3 1.37143C0.52 2.14286 0.26 3.94286 0.26 3.94286C0.26 3.94286 0 6 0 8.05714V9.94286C0 12 0.26 14.1429 0.26 14.1429C0.26 14.1429 0.52 15.9429 1.3 16.7143C2.25333 17.7429 3.55333 17.7429 4.16 17.8286C6.24 17.9143 13 18 13 18C13 18 18.46 18 22.1 17.7429C22.62 17.6571 23.7467 17.6571 24.7 16.6286C25.48 15.8571 25.74 14.0571 25.74 14.0571C25.74 14.0571 26 12 26 9.94286V8.05714C26 6 25.74 3.94286 25.74 3.94286ZM10.3133 12.3429V5.14286L17.3333 8.74286L10.3133 12.3429Z" fill="#0094E7"/>
</svg>
