<svg width="150" height="150" viewBox="0 0 150 150" fill="none" xmlns="http://www.w3.org/2000/svg">
<g clip-path="url(#clip0_0_1)">
<rect width="1440" height="6522" transform="translate(-649 -1609)" fill="white"/>
<rect width="300" height="300" transform="translate(-79 -25)" fill="white"/>
<g filter="url(#filter0_d_0_1)">
<g clip-path="url(#clip1_0_1)">
<path d="M70.1036 27.0361C69.0192 27.0473 67.907 27.259 66.8189 27.6934L66.7695 27.7143L66.7201 27.7398C66.0303 28.0911 65.4016 28.5305 64.8427 29.0513C61.8348 26.4497 57.046 26.2609 53.7699 29.2144L53.7369 29.2444L53.707 29.2758C50.833 32.2777 50.9003 36.9008 52.623 40.5537L52.638 40.5822L52.653 40.6121C54.6819 44.3693 58.4706 47.5617 61.9232 50.1863L61.9322 50.1938L61.9397 50.1998C62.1618 50.3627 62.5437 50.6993 62.9847 51.0307C63.4256 51.3621 63.9237 51.7253 64.6525 51.8646L64.8157 51.896L64.9803 51.8825C65.7453 51.8166 66.0453 51.5342 66.5478 51.2178C67.0504 50.9015 67.6067 50.5 68.1782 50.0606C69.3049 49.1944 70.4707 48.196 71.2384 47.484C71.2483 47.4748 71.2646 47.4616 71.2743 47.4525C71.2759 47.4512 71.2772 47.4494 71.2788 47.4481C72.8959 46.0682 74.4977 44.4774 75.8556 42.6063C75.856 42.6058 75.8566 42.6054 75.857 42.6049C75.8596 42.6014 75.862 42.5978 75.8645 42.5944C78.0181 39.6949 79.0627 35.7875 77.8168 31.9378L77.7943 31.8689L77.7644 31.8045C76.3655 28.7802 73.3567 27.0027 70.1036 27.0361ZM70.1425 29.4046C72.4863 29.3507 74.5408 30.6057 75.5606 32.7522C76.503 35.7572 75.6884 38.819 73.9332 41.1765L73.9287 41.1825L73.9243 41.1885C72.7016 42.8758 71.2208 44.3528 69.6859 45.659L69.6664 45.677L69.647 45.6949C68.9558 46.3383 67.7859 47.3405 66.7171 48.1622C66.1827 48.5731 65.6703 48.9402 65.2723 49.1907C65.1227 49.2849 64.9804 49.3492 64.8636 49.3988C64.7409 49.3318 64.5851 49.2373 64.4235 49.1159C64.098 48.8713 63.7515 48.5591 63.374 48.2805C63.3681 48.276 63.3619 48.2715 63.356 48.267C60.0054 45.7185 56.476 42.624 54.7789 39.5043C53.4011 36.5608 53.4612 33.0376 55.4077 30.9676C58.0543 28.6144 61.9863 29.126 63.9473 31.541L64.9025 32.7162L65.8263 31.517C66.3578 30.8275 66.992 30.3004 67.762 29.9001C68.5692 29.5848 69.3711 29.4223 70.1425 29.4046Z" fill="#0094E7"/>
</g>
<g clip-path="url(#clip2_0_1)">
<path d="M124.393 67.421L105 61.3597C103.663 60.9419 102.236 61.6893 101.819 63.0262L97.2726 77.5711C96.8547 78.908 97.6021 80.335 98.939 80.7529L102.575 81.8894L101.148 86.4552L110.183 84.2673L118.332 86.8141C119.669 87.232 121.096 86.4846 121.514 85.1477L126.06 70.6028C126.478 69.2659 125.73 67.8388 124.393 67.421ZM119.09 84.39L110.27 81.6333L104.911 82.9294L105.757 80.2229L99.6967 78.3287L104.243 63.7839L123.636 69.8451L119.09 84.39Z" fill="#0094E7"/>
<path d="M106.743 68.5569L118.864 72.3452L118.106 74.7693L105.986 70.981L106.743 68.5569ZM105.228 73.4052L113.712 76.057L112.955 78.4811L104.47 75.8293L105.228 73.4052Z" fill="#0094E7"/>
</g>
<mask id="path-4-inside-1_0_1" fill="white">
<path d="M99.6223 94.4869C99.6223 90.1927 96.191 87.9434 91.5487 87.9434H78.0255C79.0347 84.2627 79.4384 80.7865 79.4384 77.7193C79.4384 65.8593 76.2089 63.4055 73.3832 63.4055C71.5666 63.4055 70.1537 63.61 68.3372 64.6324C67.7317 65.0414 67.5298 65.4503 67.328 66.0638L65.3096 77.1059C63.0894 82.8314 57.6397 87.9434 53.1992 91.4196V120.661C54.8139 120.661 56.4287 121.479 58.447 122.501C60.6673 123.523 62.8875 124.75 65.3096 124.75H84.4843C88.5211 124.75 91.5487 121.479 91.5487 118.616C91.5487 118.002 91.5487 117.593 91.3469 117.184C93.769 116.162 95.5855 114.117 95.5855 111.459C95.5855 110.232 95.3837 109.21 94.98 108.187C96.5947 107.165 98.0076 105.324 98.0076 103.28C98.0076 102.053 97.4021 100.826 96.7965 99.8034C98.4113 98.5765 99.6223 96.5317 99.6223 94.4869ZM95.3837 94.4869C95.3837 97.1451 92.7598 97.3496 92.3561 98.5765C91.9524 100.008 93.9708 100.417 93.9708 102.871C93.9708 105.324 90.9432 105.324 90.5395 106.756C90.1358 108.392 91.5487 108.801 91.5487 111.254V111.663C91.145 113.708 88.1174 113.913 87.5119 114.731C86.9064 115.753 87.5119 116.162 87.5119 118.411C87.5119 119.638 86.0991 120.456 84.4843 120.456H65.3096C63.6949 120.456 62.0802 119.638 60.0618 118.616C58.447 117.798 56.8323 116.98 55.2176 116.571V95.1003C60.2636 91.2151 66.7225 85.4896 69.1445 78.3327V77.9238L70.9611 67.6997C71.7684 67.4952 72.374 67.4952 73.3832 67.4952C73.7868 67.4952 75.4016 69.949 75.4016 77.7193C75.4016 80.7865 74.796 84.0583 73.7868 87.9434H73.3832C72.1721 87.9434 71.3648 88.7614 71.3648 89.9883C71.3648 91.2151 72.1721 92.0331 73.3832 92.0331H91.5487C93.5671 92.0331 95.3837 93.0555 95.3837 94.4869Z"/>
</mask>
<path d="M99.6223 94.4869C99.6223 90.1927 96.191 87.9434 91.5487 87.9434H78.0255C79.0347 84.2627 79.4384 80.7865 79.4384 77.7193C79.4384 65.8593 76.2089 63.4055 73.3832 63.4055C71.5666 63.4055 70.1537 63.61 68.3372 64.6324C67.7317 65.0414 67.5298 65.4503 67.328 66.0638L65.3096 77.1059C63.0894 82.8314 57.6397 87.9434 53.1992 91.4196V120.661C54.8139 120.661 56.4287 121.479 58.447 122.501C60.6673 123.523 62.8875 124.75 65.3096 124.75H84.4843C88.5211 124.75 91.5487 121.479 91.5487 118.616C91.5487 118.002 91.5487 117.593 91.3469 117.184C93.769 116.162 95.5855 114.117 95.5855 111.459C95.5855 110.232 95.3837 109.21 94.98 108.187C96.5947 107.165 98.0076 105.324 98.0076 103.28C98.0076 102.053 97.4021 100.826 96.7965 99.8034C98.4113 98.5765 99.6223 96.5317 99.6223 94.4869ZM95.3837 94.4869C95.3837 97.1451 92.7598 97.3496 92.3561 98.5765C91.9524 100.008 93.9708 100.417 93.9708 102.871C93.9708 105.324 90.9432 105.324 90.5395 106.756C90.1358 108.392 91.5487 108.801 91.5487 111.254V111.663C91.145 113.708 88.1174 113.913 87.5119 114.731C86.9064 115.753 87.5119 116.162 87.5119 118.411C87.5119 119.638 86.0991 120.456 84.4843 120.456H65.3096C63.6949 120.456 62.0802 119.638 60.0618 118.616C58.447 117.798 56.8323 116.98 55.2176 116.571V95.1003C60.2636 91.2151 66.7225 85.4896 69.1445 78.3327V77.9238L70.9611 67.6997C71.7684 67.4952 72.374 67.4952 73.3832 67.4952C73.7868 67.4952 75.4016 69.949 75.4016 77.7193C75.4016 80.7865 74.796 84.0583 73.7868 87.9434H73.3832C72.1721 87.9434 71.3648 88.7614 71.3648 89.9883C71.3648 91.2151 72.1721 92.0331 73.3832 92.0331H91.5487C93.5671 92.0331 95.3837 93.0555 95.3837 94.4869Z" fill="#0094E7" stroke="#0094E7" stroke-width="8" mask="url(#path-4-inside-1_0_1)"/>
<mask id="path-5-inside-2_0_1" fill="white">
<path d="M50.8784 124.75H38.941C36.7525 124.75 34.9619 122.926 34.9619 120.697V92.3277C34.9619 90.0987 36.7525 88.2749 38.941 88.2749H50.8784C53.0669 88.2749 54.8575 90.0987 54.8575 92.3277V120.697C54.8575 122.926 53.0669 124.75 50.8784 124.75ZM38.941 92.3277V120.697H50.8784V92.3277H38.941Z"/>
</mask>
<path d="M50.8784 124.75H38.941C36.7525 124.75 34.9619 122.926 34.9619 120.697V92.3277C34.9619 90.0987 36.7525 88.2749 38.941 88.2749H50.8784C53.0669 88.2749 54.8575 90.0987 54.8575 92.3277V120.697C54.8575 122.926 53.0669 124.75 50.8784 124.75ZM38.941 92.3277V120.697H50.8784V92.3277H38.941Z" fill="#0094E7" stroke="#0094E7" stroke-width="8" mask="url(#path-5-inside-2_0_1)"/>
<path d="M29.9169 62.7074L28.9344 60.7148C28.5087 59.8514 28.4787 59.2882 29.8735 58.6005L31.6005 57.749L29.963 54.428L27.3062 55.7379C23.9852 57.3754 23.7375 60.2222 24.9492 62.6798L25.9317 64.6724L23.2749 65.9823L24.9123 69.3033L27.5691 67.9934L32.4815 77.9564L36.4667 75.9915L31.5543 66.0285L34.4768 64.5875L33.2379 61.07L29.9169 62.7074Z" fill="#0094E7"/>
<path fill-rule="evenodd" clip-rule="evenodd" d="M104.005 33.4463C101.928 31.8307 101.661 31.6368 100.816 31.0393C99.9721 30.4433 99.3144 30.1412 98.6794 29.953C98.0181 29.7498 97.3193 29.6937 96.6316 29.7889C95.9421 29.8711 95.2776 30.1029 94.6844 30.4679C94.1136 30.8108 93.5479 31.2709 92.8705 32.0623C92.1922 32.8559 91.9786 33.1117 90.3467 35.2049C88.7149 37.298 88.5189 37.5676 87.9148 38.4188C87.312 39.2683 87.0046 39.9294 86.8116 40.5661C86.6123 41.2255 86.5384 41.8586 86.6295 42.6182C86.7057 43.3075 86.9313 43.9706 87.2906 44.5613C87.6292 45.1295 88.0835 45.6925 88.8682 46.3639C89.6552 47.0361 89.9089 47.2477 91.9859 48.8634C94.0628 50.479 94.3304 50.6729 95.1756 51.2703C96.019 51.8664 96.6767 52.1685 97.3111 52.3562C97.9726 52.5597 98.6717 52.6159 99.3596 52.5208C100.049 52.4385 100.714 52.2068 101.307 51.8418C101.877 51.4984 102.443 51.0388 103.121 50.2474C103.799 49.4538 104.013 49.198 105.644 47.1048C107.276 45.0117 107.472 44.7421 108.076 43.8908C108.679 43.0413 108.987 42.3803 109.179 41.7431C109.388 41.0794 109.45 40.3792 109.362 39.6915C109.285 39.0019 109.06 38.3387 108.7 37.748C108.362 37.1802 107.908 36.6172 107.123 35.9458C106.336 35.2736 106.082 35.062 104.005 33.4463ZM102.923 34.835C104.965 36.4237 105.2 36.6201 105.978 37.2844C106.697 37.8986 107.004 38.3397 107.191 38.6549C107.439 39.0726 107.564 39.4374 107.622 39.9155C107.679 40.3935 107.644 40.7789 107.502 41.2468C107.395 41.5999 107.202 42.1049 106.65 42.8833C106.053 43.724 105.871 43.9747 104.266 46.0329C102.662 48.0911 102.464 48.3284 101.793 49.113C101.173 49.8383 100.73 50.1492 100.414 50.3393C100.03 50.5789 99.5987 50.7298 99.1508 50.7809C98.7045 50.8449 98.2503 50.808 97.8218 50.673C97.4701 50.569 96.9667 50.3793 96.1944 49.8338C95.3597 49.2436 95.1108 49.0633 93.0685 47.4746C91.0263 45.886 90.7904 45.6891 90.0129 45.0253C89.2937 44.4106 88.9869 43.97 88.7997 43.6548C88.5637 43.2729 88.4167 42.8421 88.3694 42.3942C88.3094 41.9479 88.3502 41.493 88.4887 41.0628C88.5957 40.7098 88.789 40.2048 89.341 39.4264C89.9379 38.5857 90.1201 38.3349 91.7247 36.2768C93.3293 34.2186 93.5275 33.9813 94.1978 33.1967C94.8181 32.4714 95.2609 32.1605 95.5774 31.9704C95.9968 31.7184 96.3623 31.5903 96.8404 31.5287C97.2867 31.4648 97.7408 31.5017 98.1693 31.6366C98.5211 31.7407 99.0239 31.9299 99.7968 32.4759C100.631 33.0661 100.88 33.2464 102.923 34.835Z" fill="#0094E7"/>
<path fill-rule="evenodd" clip-rule="evenodd" d="M101.232 37.013C100.139 36.1632 98.751 35.7856 97.3717 35.9632C95.9925 36.1408 94.7355 36.8591 93.8773 37.96C93.0191 39.0609 92.6299 40.4543 92.7954 41.8337C92.9609 43.213 93.6676 44.4654 94.7599 45.3151C95.8522 46.1649 97.2407 46.5425 98.6199 46.3649C99.9991 46.1873 101.256 45.4691 102.114 44.3682C102.973 43.2672 103.362 41.8738 103.196 40.4945C103.031 39.1151 102.324 37.8628 101.232 37.013ZM95.9156 43.8326C95.2134 43.2863 94.7591 42.4813 94.6527 41.5945C94.5463 40.7078 94.7965 39.812 95.3482 39.1043C95.8999 38.3966 96.708 37.9348 97.5946 37.8207C98.4813 37.7065 99.3739 37.9493 100.076 38.4955C100.778 39.0418 101.233 39.8469 101.339 40.7336C101.445 41.6203 101.195 42.5161 100.643 43.2238C100.092 43.9316 99.2837 44.3933 98.397 44.5075C97.5104 44.6217 96.6178 44.3789 95.9156 43.8326ZM106.304 41.0545C106.207 41.1791 106.087 41.2836 105.95 41.3619C105.813 41.4402 105.662 41.4908 105.506 41.5109C105.349 41.531 105.191 41.5202 105.04 41.479C104.888 41.4379 104.747 41.3672 104.623 41.271C104.5 41.1748 104.396 41.055 104.319 40.9185C104.242 40.782 104.193 40.6313 104.174 40.4752C104.155 40.3191 104.168 40.1606 104.21 40.0087C104.253 39.8567 104.324 39.7144 104.422 39.5898C104.618 39.3382 104.905 39.174 105.22 39.1334C105.535 39.0928 105.853 39.1791 106.103 39.3734C106.352 39.5676 106.514 39.8538 106.552 40.1691C106.589 40.4844 106.5 40.8029 106.304 41.0545Z" fill="#0094E7"/>
</g>
</g>
<defs>
<filter id="filter0_d_0_1" x="19.2744" y="26" width="114.726" height="106.75" filterUnits="userSpaceOnUse" color-interpolation-filters="sRGB">
<feFlood flood-opacity="0" result="BackgroundImageFix"/>
<feColorMatrix in="SourceAlpha" type="matrix" values="0 0 0 0 0 0 0 0 0 0 0 0 0 0 0 0 0 0 127 0" result="hardAlpha"/>
<feOffset dy="4"/>
<feGaussianBlur stdDeviation="2"/>
<feComposite in2="hardAlpha" operator="out"/>
<feColorMatrix type="matrix" values="0 0 0 0 0 0 0 0 0 0 0 0 0 0 0 0 0 0 0.25 0"/>
<feBlend mode="normal" in2="BackgroundImageFix" result="effect1_dropShadow_0_1"/>
<feBlend mode="normal" in="SourceGraphic" in2="effect1_dropShadow_0_1" result="shape"/>
</filter>
<clipPath id="clip0_0_1">
<rect width="1440" height="6522" fill="white" transform="translate(-649 -1609)"/>
</clipPath>
<clipPath id="clip1_0_1">
<rect width="26.9319" height="26.9319" fill="white" transform="translate(51.4199 26)"/>
</clipPath>
<clipPath id="clip2_0_1">
<rect width="30.4775" height="30.4775" fill="white" transform="translate(100.91 57.4204) rotate(17.3565)"/>
</clipPath>
</defs>
</svg>
